<?xml version="1.0" encoding="UTF-8"?>
<svg id="Capa_1" data-name="Capa 1" xmlns="http://www.w3.org/2000/svg" viewBox="0 0 510.47 208.96">
  <defs>
    <style>
      .cls-1 {
        font-family: PerpetuaTitlingMT-Bold, 'Perpetua Titling MT';
        font-size: 60px;
        font-weight: 700;
      }

      .cls-2 {
        letter-spacing: -.02em;
      }

      .cls-3 {
        fill: #070707;
      }

      .cls-4 {
        letter-spacing: -.06em;
      }
    </style>
  </defs>
  <text class="cls-1" transform="translate(0 51.57)"><tspan x="0" y="0" xml:space="preserve">CO   RDE</tspan><tspan class="cls-2" x="286.79" y="0">N</tspan><tspan x="337.56" y="0">A</tspan><tspan class="cls-4" x="385.08" y="0">D</tspan><tspan x="432.36" y="0">AS</tspan><tspan x="230.54" y="72">Y</tspan><tspan x="80.79" y="144" xml:space="preserve">L  TITUDES</tspan></text>
  <g>
    <path d="M143.77,29.22c0-.13,0-.28,0-.46,0-.04,0-.1,0-.15,0-.03,0-.05,0-.08v-.06c0-.1-.02-.21-.02-.33-.06-.92-.22-2.3-.68-3.98-.06-.22-.12-.43-.18-.64-.07-.22-.15-.45-.23-.67-.07-.23-.17-.46-.26-.69-.09-.23-.18-.48-.3-.71-.41-.96-.94-1.97-1.61-3-.66-1.01-1.47-2.04-2.41-3.03-.47-.5-.99-.97-1.53-1.44-.14-.12-.28-.23-.42-.35-.15-.11-.29-.22-.44-.34-.14-.11-.3-.22-.45-.33s-.3-.22-.46-.33c-1.24-.83-2.63-1.58-4.15-2.16-.19-.08-.38-.14-.58-.21-.19-.07-.39-.14-.59-.2s-.4-.12-.6-.18c-.1-.03-.2-.06-.3-.08-.1-.03-.2-.05-.31-.08-.2-.05-.41-.1-.62-.15-.2-.05-.42-.08-.62-.12-.1-.02-.21-.04-.31-.06l-.16-.03-.16-.02c-.22-.03-.43-.06-.64-.09-.21-.03-.43-.05-.64-.06-.17-.02-.35-.03-.52-.05h-.08s-.04,0-.06,0c-.22,0-.44,0-.65-.02-.06,0-.11,0-.17,0h-.5c-.15,0-.31,0-.47,0,0,0-.03,0-.04,0,0,0-.03,0-.04,0h-.12c-.23,0-.45.02-.67.04-.45.02-.89.08-1.35.14-.89.13-1.8.3-2.69.56-.46.12-.89.28-1.34.42-.22.08-.44.17-.66.25l-.33.13-.33.15c-1.74.74-3.39,1.77-4.9,3-.19.16-.37.32-.56.48-.19.16-.36.34-.54.51-.09.08-.18.16-.27.25l-.26.27-.26.27c-.08.08-.17.17-.25.27-.17.19-.33.37-.49.56-.17.19-.32.39-.47.58-.08.1-.16.2-.24.3l-.22.3-.21.31c-.08.1-.15.2-.22.31-.14.21-.27.42-.41.62-.13.21-.25.43-.38.64-.06.11-.13.22-.19.33l-.18.33-.17.34-.09.17s-.05.11-.08.17c-.1.23-.21.46-.31.68-.1.23-.19.47-.29.69-.04.12-.09.24-.14.36l-.12.36-.12.36-.06.18c-.02.06-.04.12-.06.18l-.21.73c-.03.12-.06.24-.09.37l-.08.37-.09.37-.07.38-.07.37c-.02.13-.04.25-.06.38l-.1.75c0,.06,0,.12-.02.19l-.02.19-.03.38-.03.39v.17s0,.02,0,.03v.04s0,.09,0,.14l-.02.7v.08l.02.73v.19c0,.06,0,.13,0,.19l.03.38.03.38.02.19c0,.07,0,.13.02.19l.1.75c0,.13.04.25.06.38l.07.37.07.38.08.37.09.37c.03.12.05.25.09.37l.04.14v.02s.02.03.02.03l.15.54c.02.07.03.13.06.19l.07.22h0v.06s.1.26.1.26l.12.36c.05.12.1.24.14.35,0,.02.02.04.02.06,0,.02.02.05.03.07.08.2.15.39.24.58.1.23.21.46.31.68.03.06.05.12.08.17l.09.17.17.34.18.33c.06.11.12.22.19.33.13.22.25.44.38.64.14.21.27.42.41.62.07.11.14.21.21.31l.22.31.22.3c.08.1.16.2.23.29.16.2.31.4.47.59.17.19.33.37.5.56.08.1.16.18.25.27l.26.27.26.27c.08.08.17.17.27.25.18.17.35.34.54.51.18.16.37.32.56.48,1.51,1.23,3.16,2.25,4.9,3l.33.15.33.13c.09.03.18.07.27.1.02,0,.04.02.06.02.11.05.22.09.34.13.24.08.48.16.71.23,0,0,.02,0,.03,0,0,0,.02,0,.03,0,.19.06.37.12.56.17.14.04.29.08.43.11,0,0,0,0,.02,0,0,0,.02,0,.04,0,.73.19,1.48.32,2.21.43.46.06.9.12,1.35.14.23.02.46.04.67.04h.12s.05,0,.08,0c.16,0,.32,0,.47,0h.5c.06,0,.11,0,.17,0,.22,0,.44-.02.65-.02h.06s.03,0,.04,0h.04c.17-.02.35-.03.52-.04.22-.02.44-.04.64-.07.22-.03.43-.06.64-.09l.16-.02.16-.03c.1-.02.21-.04.32-.06.21-.04.42-.07.62-.12.21-.05.42-.1.62-.15.11-.02.21-.05.31-.07.1-.04.2-.06.3-.09.21-.06.41-.12.61-.18.19-.06.39-.13.58-.2.2-.07.39-.13.58-.21,1.52-.59,2.91-1.33,4.15-2.16,1.25-.84,2.34-1.8,3.28-2.78.95-.98,1.75-2.01,2.41-3.03.66-1.02,1.2-2.03,1.62-3,.11-.24.2-.49.29-.71.1-.24.19-.47.26-.69.08-.23.16-.46.23-.67.07-.22.13-.44.19-.64.47-1.68.62-3.05.67-3.98,0-.12,0-.23.02-.33v-.08s0-.02,0-.03c0,0,0-.03,0-.04v-.14c0-.18,0-.33,0-.46,0-.17,0-.28,0-.33v-.03h0v-.05c0-.06,0-.16,0-.31ZM143.74,29.56v.04c0,.06,0,.17,0,.33,0,.13,0,.28,0,.46,0,.05,0,.09,0,.14,0,0,0,.02,0,.04,0,0,0,.02,0,.04v.06c0,.11-.02.22-.03.33-.06.93-.21,2.3-.67,3.98-.06.21-.12.43-.19.64-.07.22-.15.44-.23.66-.07.23-.16.46-.26.69-.09.23-.18.47-.29.7-.42.96-.95,1.97-1.63,2.99-.66,1.01-1.47,2.02-2.41,3.01-.95.97-2.04,1.9-3.28,2.73-1.25.83-2.63,1.56-4.14,2.12-.19.08-.39.14-.58.2-.19.07-.39.14-.58.2-.2.05-.4.11-.6.17-.1.03-.2.05-.3.08-.1.03-.2.05-.31.07-.2.05-.41.1-.61.15-.21.04-.42.07-.62.11-.1.02-.21.04-.31.06l-.16.02-.16.03c-.21.02-.42.05-.63.08-.21.03-.43.04-.63.06-.16,0-.32.02-.48.03h-.09s-.06,0-.09,0c-.21,0-.43,0-.64.02-.06,0-.11,0-.17,0h-.16c-.11,0-.22,0-.33,0-.17,0-.34,0-.5-.02-.03,0-.06,0-.08,0h-.09c-.22,0-.45-.03-.66-.04-.44-.03-.88-.09-1.33-.15-.73-.12-1.48-.25-2.22-.46,0,0-.03,0-.04,0t-.02,0c-.13-.03-.25-.06-.38-.1-.22-.06-.43-.13-.63-.19,0,0-.02,0-.03,0,0,0-.02,0-.03,0-.21-.08-.41-.15-.62-.22-.16-.06-.31-.12-.47-.18-.02,0-.05-.02-.07-.02-.04-.02-.08-.04-.12-.05l-.32-.13-.33-.15c-1.71-.74-3.33-1.77-4.8-2.99-.18-.16-.37-.32-.55-.48-.18-.16-.35-.33-.53-.5-.07-.06-.15-.14-.21-.2h0l-.02-.02s-.02-.02-.03-.03l-.26-.27-.25-.26c-.08-.09-.17-.18-.25-.27-.16-.19-.32-.37-.48-.56-.16-.18-.3-.38-.46-.57-.07-.1-.15-.19-.22-.29l-.22-.3-.21-.3c-.07-.1-.15-.2-.21-.31-.13-.21-.27-.41-.4-.62s-.25-.43-.38-.63c-.06-.11-.12-.22-.18-.32l-.17-.34-.17-.33-.08-.16c-.03-.06-.05-.11-.08-.17-.1-.23-.21-.45-.31-.67-.05-.12-.1-.25-.15-.37,0-.03-.02-.05-.03-.07-.03-.09-.06-.17-.1-.25-.04-.12-.09-.23-.13-.35l-.12-.35-.04-.13v-.03s-.02-.02-.02-.02h0s-.12-.35-.12-.35c-.02-.06-.04-.12-.05-.18l-.14-.47v-.04s0-.02,0-.02l-.06-.19c-.03-.12-.06-.25-.09-.37l-.08-.36-.08-.37-.07-.37-.07-.36c-.02-.13-.04-.25-.06-.37l-.09-.74c0-.06-.02-.12-.02-.18l-.02-.19-.03-.38-.02-.37s0-.07,0-.11v-.08c0-.06,0-.12,0-.19l-.02-.7v-.08l.02-.7c0-.06,0-.12,0-.18v-.08s0-.07,0-.11l.02-.38.03-.37.02-.19c0-.06,0-.12.02-.19l.09-.73c.02-.12.04-.25.06-.37l.07-.37.07-.37.08-.36.08-.37c.03-.12.05-.24.09-.36l.21-.71c0-.06.03-.12.05-.18l.06-.18.12-.35.12-.35c.04-.12.09-.23.13-.35.1-.23.18-.46.28-.68.1-.23.21-.45.31-.67.03-.06.05-.11.08-.17l.08-.16.17-.34.17-.33c.06-.11.12-.21.18-.32.13-.21.25-.43.38-.63s.27-.42.4-.62c.06-.11.14-.21.21-.31l.21-.3.22-.3c.07-.1.15-.19.22-.29.16-.19.3-.39.46-.58.16-.18.32-.37.48-.55.08-.1.17-.18.25-.27l.25-.27.26-.26c.08-.09.17-.17.26-.25.18-.17.35-.34.53-.5.18-.16.37-.32.55-.48,1.47-1.23,3.1-2.24,4.8-3l.33-.14.32-.13c.22-.09.44-.18.65-.26.44-.14.86-.31,1.31-.42.87-.27,1.78-.44,2.66-.58.45-.06.88-.13,1.33-.15.22,0,.45-.04.66-.05h.17c.16,0,.33,0,.5,0,.11,0,.22,0,.33,0h.16c.06,0,.11,0,.17,0,.22,0,.44,0,.65,0,.03,0,.05,0,.08,0h.08c.16.02.32.03.49.04.21.02.43.03.63.06.22.03.43.06.63.08l.16.02.16.03c.11.02.21.04.31.06.21.04.42.07.62.11.21.05.41.1.62.15.1.02.2.04.3.07.1.03.2.05.3.08.2.06.4.11.6.17.2.06.39.13.58.2.2.06.39.12.58.2,1.51.57,2.9,1.29,4.14,2.11,1.24.83,2.33,1.77,3.28,2.74.95.98,1.75,1.99,2.42,3.01.66,1.01,1.2,2.02,1.62,2.99.11.23.2.48.3.7.09.24.18.47.26.69.07.23.15.45.22.66.07.22.13.44.19.64.47,1.68.62,3.05.68,3.98,0,.11,0,.22.02.33v.05s0,.06,0,.08c0,.06,0,.11,0,.16,0,.18,0,.33,0,.45,0,.16,0,.27,0,.32v.04Z"/>
    <path d="M146.11,28.89v-.08c0-.1,0-.21,0-.31,0-.24-.03-.49-.04-.73-.02-.49-.1-.98-.15-1.48-.15-.98-.34-1.97-.62-2.96-.13-.5-.3-.97-.46-1.47-.09-.24-.19-.48-.28-.71l-.14-.37-.16-.36c-.82-1.9-1.94-3.71-3.3-5.37-.18-.2-.36-.41-.53-.62-.18-.2-.37-.39-.56-.59-.09-.1-.18-.2-.28-.29l-.29-.29-.3-.28c-.1-.09-.19-.19-.3-.28-.2-.18-.41-.36-.62-.54-.1-.09-.21-.17-.32-.25l-.32-.26c-.11-.08-.21-.17-.32-.25l-.34-.24-.33-.24c-.12-.08-.23-.17-.35-.24-.23-.15-.46-.3-.68-.45-.12-.08-.24-.14-.36-.21l-.36-.21c-.12-.07-.23-.14-.36-.2l-.37-.2-.37-.19-.18-.09c-.06-.03-.13-.06-.19-.09-.25-.12-.51-.23-.75-.35-.26-.11-.52-.2-.77-.31-.13-.05-.25-.1-.39-.15l-.39-.13-.4-.14-.2-.06c-.06-.03-.13-.04-.2-.06l-.79-.23c-.14-.04-.28-.07-.41-.1l-.41-.1-.41-.09-.41-.08-.42-.07c-.13-.03-.27-.05-.41-.07l-.82-.11c-.08,0-.14,0-.21-.02l-.21-.02-.43-.03-.42-.03c-.14-.02-.28,0-.42-.02h-.17l-.62-.02h-.08l-.62.02h-.17c-.14,0-.28,0-.42.02l-.42.03-.42.03-.21.02c-.07,0-.14,0-.2.02l-.83.11c-.14,0-.28.04-.41.07l-.42.07-.41.08-.41.09-.41.1c-.13.03-.27.05-.41.1l-.79.23c-.07.02-.14.03-.2.05l-.6.21-.39.13-.39.15c-.26.11-.52.2-.77.31-.25.12-.5.23-.75.35-.06.03-.12.05-.19.09l-.18.09-.73.38c-.12.07-.24.14-.36.21l-.36.21c-.12.07-.24.13-.36.21-.23.15-.46.3-.68.45-.12.07-.23.15-.35.23l-.33.24-.34.24c-.11.09-.21.17-.32.26l-.32.25c-.11.09-.22.17-.32.26-.21.18-.41.36-.62.54-.11.09-.2.19-.3.28l-.3.28-.29.29c-.1.09-.19.19-.28.29-.19.2-.38.39-.56.59-.17.21-.35.41-.53.62-1.36,1.65-2.48,3.46-3.3,5.37l-.16.36-.14.37c-.09.24-.19.48-.28.71-.16.5-.33.97-.46,1.47-.29.98-.48,1.97-.62,2.96-.05.5-.13.99-.15,1.48,0,.13-.02.25-.03.38,0,.12-.02.25-.02.37v.34s0,.03,0,.04v.62s0,.05,0,.05h0v.05c0,.12,0,.24,0,.36,0,.1,0,.2,0,.29,0,.03,0,.06,0,.08,0,.12,0,.24,0,.36.02.24.04.48.06.71.02.24.03.48.07.71.03.23.06.47.09.69l.03.18.03.18c.02.11.04.23.07.34.02.12.04.23.06.35.02.11.04.23.07.34.05.23.11.46.16.67.03.1.04.2.07.29v.03s0,0,0,.02h0c.04.12.07.22.1.33.04.14.08.29.12.43,0,0,0,0,0,0v.02s0,.02,0,.03c.02.06.03.11.05.17.07.22.15.43.22.64,0,.02,0,.04.02.06.03.08.07.17.09.26.02.05.04.1.06.15l.06.16c.64,1.66,1.46,3.18,2.39,4.55.11.17.24.34.36.5.12.17.23.34.36.5.12.16.25.32.38.47.12.16.24.32.38.46.52.61,1.03,1.17,1.58,1.69,1.09,1.04,2.21,1.91,3.33,2.65,1.12.72,2.24,1.31,3.3,1.77.26.13.53.22.78.33.26.1.52.2.76.28.02,0,.05.02.07.02.02,0,.04.02.06.02.21.08.41.14.61.21.07.02.15.04.22.06,0,0,.02,0,.03,0s.02,0,.03,0c.15.04.3.08.44.12.11.03.23.06.34.09,0,0,0,0,.02,0s.03,0,.04,0c1.68.43,3.04.58,3.99.63.13,0,.25.02.37.03.11,0,.22,0,.32,0h.11s.05,0,.08,0c.12,0,.22,0,.31,0,.18,0,.3,0,.36,0h.08c.06,0,.18,0,.37,0,.09,0,.19,0,.3,0h.2c.1,0,.21,0,.32,0s.24-.02.37-.03c1.02-.06,2.53-.23,4.38-.74.23-.06.47-.13.71-.2.24-.08.48-.17.73-.25.25-.08.51-.18.76-.29.26-.1.53-.2.78-.32,1.06-.46,2.17-1.04,3.29-1.78,1.13-.72,2.25-1.6,3.34-2.64.55-.52,1.06-1.08,1.58-1.69.14-.14.26-.3.38-.46.13-.16.25-.31.38-.47.12-.16.24-.33.36-.5s.25-.33.36-.5c.92-1.37,1.75-2.9,2.38-4.55l.07-.16s.03-.1.05-.16c.04-.1.08-.21.11-.32.08-.21.16-.42.22-.63.07-.22.13-.44.2-.65.03-.11.06-.22.09-.33.03-.11.06-.23.09-.34.05-.22.1-.45.16-.67.03-.11.05-.23.07-.34.02-.12.04-.23.06-.35.03-.11.05-.23.07-.35l.03-.17.02-.18c.04-.23.07-.47.1-.69.04-.24.05-.48.07-.71s.04-.48.06-.71c0-.12,0-.24,0-.36v-.08c0-.09,0-.19,0-.29,0-.12,0-.24,0-.36v-.08c0-.1,0-.19,0-.29,0-.12,0-.23,0-.35ZM145.9,29.6c0,.12,0,.24,0,.36,0,.1,0,.21,0,.31v.08c0,.11,0,.22,0,.33,0,.24-.04.48-.05.71-.02.24-.03.47-.07.7-.03.23-.06.47-.09.69l-.02.17-.03.18c-.02.11-.04.23-.06.34-.02.12-.04.23-.06.35-.02.11-.04.23-.07.34-.05.22-.1.45-.15.66-.03.11-.06.23-.08.34-.03.11-.07.22-.1.33-.06.22-.12.44-.18.64-.07.22-.15.43-.22.64-.03.1-.07.21-.11.31-.02.06-.03.11-.05.16l-.06.16c-.62,1.65-1.43,3.17-2.34,4.53-.9,1.37-1.93,2.57-3.01,3.61-1.08,1.04-2.2,1.91-3.31,2.65-1.12.73-2.22,1.32-3.28,1.78-.26.13-.53.22-.78.33-.26.1-.51.2-.76.28-.25.09-.5.17-.73.26-.24.06-.48.13-.7.2-1.86.52-3.35.67-4.37.74-.13,0-.26.02-.37.03s-.22,0-.32,0h-.1s-.03,0-.05,0c0,0-.03,0-.04,0-.11,0-.22,0-.3,0-.19,0-.31,0-.37,0h-.04s0,0-.04,0c-.06,0-.18,0-.36,0-.09,0-.19,0-.31,0h-.19c-.1,0-.2,0-.32-.02-.11,0-.23,0-.36-.02-.95-.07-2.32-.22-4-.65,0,0-.02,0-.03,0h-.03c-.11-.03-.22-.06-.33-.09-.15-.04-.3-.08-.45-.13,0,0-.02,0-.03,0h-.03c-.06-.02-.13-.04-.2-.06-.2-.07-.42-.14-.62-.21-.02,0-.05-.02-.07-.03,0,0-.03,0-.04,0-.26-.08-.51-.18-.76-.29-.26-.1-.53-.2-.78-.32-1.06-.46-2.16-1.05-3.27-1.79-1.12-.72-2.24-1.61-3.31-2.65s-2.1-2.24-3.02-3.6c-.91-1.37-1.71-2.89-2.34-4.54l-.06-.15s-.03-.11-.05-.16c-.02-.07-.04-.13-.07-.19,0-.02,0-.04-.02-.06,0-.02,0-.05-.02-.07-.07-.21-.15-.42-.21-.63,0-.04-.03-.09-.04-.13,0,0,0-.02,0-.03v-.02h0c-.05-.17-.1-.32-.14-.48-.03-.1-.05-.2-.09-.3,0,0,0-.02,0-.03s0-.02,0-.03c-.02-.1-.04-.2-.06-.3-.06-.23-.11-.45-.16-.67-.03-.11-.04-.23-.07-.34-.02-.11-.04-.23-.06-.34-.02-.12-.04-.23-.06-.35l-.03-.17-.02-.18c-.03-.23-.06-.46-.09-.69-.03-.23-.05-.47-.07-.7,0-.24-.04-.47-.05-.7,0-.11,0-.23,0-.34v-.08c0-.1,0-.2,0-.3,0-.13,0-.25,0-.37v-.08c0-.09,0-.19,0-.28,0-.13,0-.26,0-.39v-.07c0-.09,0-.18,0-.27,0-.25.04-.49.05-.72.03-.5.1-.97.16-1.47.16-.97.35-1.95.63-2.92.13-.49.31-.96.47-1.45.09-.24.19-.47.28-.7l.14-.36.16-.35c.83-1.87,1.94-3.66,3.3-5.28.17-.2.35-.4.52-.6.18-.2.37-.39.55-.59.1-.09.19-.19.28-.29l.29-.27.29-.28c.1-.09.2-.19.3-.27.2-.18.41-.35.61-.53.1-.09.21-.17.32-.25l.32-.25c.1-.09.21-.17.32-.25l.33-.24.33-.23c.11-.08.22-.16.34-.23.22-.15.45-.29.67-.44.11-.08.24-.14.35-.21l.36-.2c.12-.07.23-.14.35-.2l.37-.19.36-.19.18-.09c.07-.03.13-.06.19-.08.25-.12.5-.23.74-.34.25-.11.51-.2.75-.31.13-.05.26-.1.38-.15l.39-.13.39-.13.2-.06c.06-.03.13-.04.2-.06l.78-.23c.13-.04.27-.06.4-.09l.4-.1.41-.09.4-.07.41-.07c.13-.03.27-.06.4-.07l.82-.1c.06,0,.13-.02.2-.03h.21s.41-.05.41-.05l.41-.03c.14,0,.28,0,.42,0h.11l.66-.02h.08l.66.02h.12c.14,0,.28,0,.41,0l.41.03.42.03.2.02c.07,0,.14.02.21.02l.81.11c.14,0,.27.04.41.07l.4.07.41.07.4.09.4.09c.14.04.27.06.4.1l.79.23c.06.02.13.03.19.06l.2.06.77.26c.13.05.26.1.38.15.26.1.51.2.76.31.24.11.49.22.73.33.06.03.13.06.19.09l.18.09.37.19.36.18.36.21.35.2c.12.07.24.13.35.21.23.15.46.29.68.44.11.07.22.15.33.23l.34.23.33.24c.1.08.21.16.32.25l.32.25c.1.08.21.16.31.25.2.17.41.35.61.53.1.08.2.18.3.27l.29.28.29.27c.09.1.19.2.28.29.18.2.37.39.55.59.17.2.35.4.52.6,1.36,1.62,2.47,3.4,3.3,5.28l.16.35.14.36c.09.24.19.47.28.7.16.49.34.96.47,1.45.29.96.48,1.94.63,2.92.06.49.13.97.16,1.46.02.25.04.49.05.73,0,.09,0,.17,0,.26v.08c0,.13,0,.26,0,.39,0,.09,0,.19,0,.28v.08Z"/>
    <path d="M145.89,29.25c0-.13,0-.26,0-.39v-.08c0-.09,0-.17,0-.26,0-.25-.03-.49-.05-.73-.03-.49-.1-.97-.16-1.46-.16-.97-.35-1.95-.63-2.92-.13-.49-.31-.96-.47-1.45-.09-.24-.19-.47-.28-.7l-.14-.36-.16-.35c-.83-1.87-1.94-3.66-3.3-5.28-.17-.2-.35-.4-.52-.6-.18-.2-.37-.39-.55-.59-.09-.09-.19-.19-.28-.29l-.29-.27-.29-.28c-.1-.09-.2-.19-.3-.27-.2-.18-.41-.36-.61-.53-.1-.09-.21-.17-.31-.25l-.32-.25c-.11-.09-.22-.17-.32-.25l-.33-.24-.34-.23c-.11-.08-.22-.16-.33-.23-.23-.15-.46-.29-.68-.44-.11-.08-.23-.14-.35-.21l-.35-.2-.36-.21-.36-.18-.37-.19-.18-.09c-.06-.03-.13-.06-.19-.09-.25-.11-.5-.22-.73-.33-.26-.11-.51-.21-.76-.31-.12-.05-.25-.1-.38-.15l-.77-.26-.2-.06c-.06-.03-.13-.04-.19-.06l-.79-.23c-.13-.04-.26-.06-.4-.1l-.4-.09-.4-.09-.41-.07-.4-.07c-.14-.03-.27-.06-.41-.07l-.81-.11c-.07,0-.14,0-.21-.02l-.2-.02-.42-.03-.41-.03c-.13,0-.27,0-.41,0h-.12l-.66-.02h-.08l-.66.02h-.11c-.14,0-.28,0-.42,0l-.41.03-.41.04h-.21c-.07.02-.14.03-.2.04l-.82.1c-.13,0-.27.04-.4.07l-.41.07-.4.07-.41.09-.4.1c-.13.03-.27.05-.4.09l-.78.23c-.07.02-.14.03-.2.06l-.2.06-.39.13-.39.13c-.12.05-.25.1-.38.15-.25.11-.51.2-.75.31-.25.11-.5.22-.74.34-.06.02-.12.05-.19.08l-.18.09-.36.19-.37.19c-.12.06-.23.13-.35.2l-.36.2c-.11.07-.24.13-.35.21-.23.15-.46.29-.67.44-.12.07-.23.15-.34.23l-.33.23-.33.24c-.11.08-.22.16-.32.25l-.32.25c-.11.08-.22.16-.32.25-.2.18-.41.35-.61.53-.1.08-.2.18-.3.27l-.29.28-.29.27c-.09.1-.18.2-.28.29-.18.2-.37.39-.55.59-.17.2-.35.4-.52.6-1.36,1.62-2.47,3.4-3.3,5.28l-.16.35-.14.36c-.09.24-.19.47-.28.7-.16.49-.34.96-.47,1.45-.29.96-.48,1.94-.63,2.92-.06.5-.13.97-.16,1.47,0,.24-.04.48-.05.72,0,.09,0,.18,0,.27v.07c0,.13,0,.26,0,.39,0,.09,0,.19,0,.28v.08c0,.12,0,.24,0,.37,0,.1,0,.2,0,.3v.08c0,.11,0,.23,0,.34,0,.24.04.47.05.7.02.24.04.48.07.7.03.24.06.47.09.69l.02.18.03.17c.02.12.04.23.06.35.02.11.04.23.06.34.03.11.04.23.07.34.05.23.1.45.16.67.02.1.04.2.06.3,0,0,0,.02,0,.03s0,.02,0,.03c.04.1.06.2.09.3.04.16.09.31.14.47h0v.03s0,.02,0,.03c0,.04.03.09.04.13.06.22.14.43.21.63,0,.02.02.05.02.07,0,.02.02.04.02.06.03.06.05.12.07.19.02.05.03.11.05.16l.06.15c.63,1.66,1.43,3.17,2.34,4.54.91,1.36,1.94,2.56,3.02,3.6s2.19,1.92,3.31,2.65c1.11.73,2.21,1.33,3.27,1.79.26.12.53.22.78.32.26.11.51.21.76.29,0,0,.03,0,.04,0,.02,0,.05.02.07.03.21.07.43.14.62.21.07.02.14.04.2.06h.03s.02,0,.03,0c.15.05.3.09.45.13.11.03.22.06.33.09h.03s.02,0,.03,0c1.68.44,3.05.59,4,.65.13,0,.25.02.36.02.12,0,.22,0,.32.02h.19c.12,0,.22,0,.31,0,.18,0,.3,0,.36,0h.04s0,0,.04,0c.06,0,.18,0,.37,0,.08,0,.19,0,.3,0,0,0,.03,0,.04,0,.02,0,.03,0,.05,0h.1c.1,0,.21,0,.32,0s.24-.02.37-.03c1.02-.07,2.52-.23,4.37-.74.23-.07.47-.14.7-.2.24-.09.49-.17.73-.26.26-.08.51-.18.76-.28.26-.11.53-.2.78-.33,1.06-.46,2.16-1.04,3.28-1.78,1.11-.73,2.23-1.61,3.31-2.65,1.07-1.04,2.1-2.24,3.01-3.61.91-1.36,1.72-2.89,2.34-4.53l.06-.16s.03-.1.05-.16c.04-.1.08-.21.11-.31.07-.22.15-.43.22-.64.06-.21.12-.43.18-.64.03-.11.07-.22.1-.33.02-.11.05-.23.08-.34.05-.22.1-.45.15-.66.03-.11.05-.23.07-.34.02-.12.04-.23.06-.35.02-.11.04-.23.06-.34l.03-.18.02-.17c.03-.23.06-.47.09-.69.04-.24.05-.47.07-.7,0-.24.04-.48.05-.71,0-.11,0-.22,0-.33v-.08c0-.1,0-.21,0-.31,0-.12,0-.24,0-.36v-.08c0-.09,0-.19,0-.28ZM143.78,29.56h0v.04s0,.16,0,.33c0,.13,0,.28,0,.46v.14s0,.03,0,.04c0,0,0,.02,0,.03v.08c0,.1,0,.21-.02.33-.06.93-.21,2.3-.67,3.98-.06.21-.12.43-.19.64-.07.22-.15.45-.23.67-.07.23-.16.46-.26.69-.09.23-.18.48-.29.71-.42.96-.95,1.97-1.62,3-.66,1.01-1.46,2.04-2.41,3.03-.94.98-2.03,1.93-3.28,2.78-1.24.83-2.63,1.58-4.15,2.16-.19.08-.38.14-.58.21-.19.07-.39.14-.58.2-.2.06-.4.12-.61.18-.1.03-.2.05-.3.09-.1.02-.2.05-.31.07-.2.05-.41.1-.62.15-.2.05-.41.08-.62.12-.11.02-.22.04-.32.06l-.16.03-.16.02c-.22.03-.43.06-.64.09-.21.03-.43.05-.64.07-.17,0-.35.02-.52.04h-.04s-.03,0-.04,0h-.06c-.22,0-.44,0-.65.02-.06,0-.11,0-.17,0h-.5c-.15,0-.31,0-.47,0-.03,0-.05,0-.08,0h-.12c-.22,0-.45-.02-.67-.04-.45-.02-.89-.08-1.35-.14-.73-.11-1.48-.24-2.21-.43-.02,0-.03,0-.04,0,0,0-.02,0-.02,0-.14-.03-.29-.07-.43-.11-.19-.05-.37-.11-.56-.17,0,0-.02,0-.03,0,0,0-.02,0-.03,0-.24-.07-.48-.15-.71-.23-.12-.04-.23-.08-.34-.13-.02,0-.04,0-.06-.02-.09-.03-.18-.07-.27-.1l-.33-.13-.33-.15c-1.74-.74-3.39-1.77-4.9-3-.19-.16-.38-.32-.56-.48-.19-.17-.36-.34-.54-.51-.1-.08-.19-.17-.27-.25l-.26-.27-.26-.27c-.09-.09-.17-.17-.25-.27-.17-.19-.33-.37-.5-.56-.16-.19-.31-.39-.47-.59-.07-.09-.15-.19-.23-.29l-.22-.3-.22-.31c-.07-.1-.14-.2-.21-.31-.14-.21-.27-.42-.41-.62-.13-.21-.25-.43-.38-.64-.07-.11-.13-.22-.19-.33l-.18-.33-.17-.34-.09-.17s-.05-.11-.08-.17c-.1-.23-.21-.46-.31-.68-.09-.19-.16-.38-.24-.58,0-.02-.02-.05-.03-.07,0-.02,0-.04-.02-.06-.04-.11-.09-.23-.14-.35l-.12-.36-.09-.26v-.03s0-.02,0-.02h0s-.07-.23-.07-.23c-.03-.06-.04-.12-.06-.19l-.15-.54v-.03s-.02-.02-.02-.02l-.04-.14c-.04-.12-.06-.25-.09-.37l-.09-.37-.08-.37-.07-.38-.07-.37c-.02-.13-.05-.25-.06-.38l-.1-.75c0-.06-.02-.12-.02-.19l-.02-.19-.03-.38-.03-.38c0-.06,0-.13,0-.19v-.19l-.02-.73v-.08l.02-.7s0-.1,0-.14v-.04s0-.02,0-.03v-.17l.03-.39.03-.38.02-.19c0-.07.02-.13.02-.19l.1-.75c.02-.13.04-.25.06-.38l.07-.37.07-.38.09-.37.08-.37c.03-.13.06-.25.09-.37l.21-.73c.02-.06.04-.12.06-.18l.06-.18.12-.36.12-.36c.05-.12.1-.24.14-.36.1-.23.19-.47.29-.69.1-.23.21-.46.31-.68.03-.06.05-.12.08-.17l.09-.17.17-.34.18-.33c.06-.11.13-.22.19-.33.13-.22.25-.44.38-.64.14-.21.27-.42.41-.62.07-.11.14-.21.22-.31l.21-.31.22-.3c.08-.1.16-.2.24-.3.15-.19.3-.39.47-.58.16-.19.32-.37.49-.56.08-.1.17-.19.25-.27l.26-.27.26-.27c.09-.09.18-.17.27-.25.18-.17.35-.35.54-.51.19-.16.37-.32.56-.48,1.51-1.23,3.16-2.25,4.9-3l.33-.15.33-.13c.23-.08.45-.17.66-.25.45-.14.88-.3,1.34-.42.89-.26,1.8-.43,2.69-.56.46-.06.9-.12,1.35-.14.23-.02.45-.04.67-.04h.12s.03,0,.04,0c0,0,.03,0,.04,0,.16,0,.32,0,.47,0h.5c.06,0,.11,0,.17,0,.22,0,.44,0,.65.02.02,0,.04,0,.06,0h.08c.17.02.35.03.52.05.22,0,.44.03.64.06.22.03.43.06.64.09l.16.02.16.03c.1.02.21.04.31.06.21.04.43.07.62.12.21.05.42.1.62.15.11.03.21.05.31.08.1.02.2.05.3.08.2.06.4.12.6.18s.4.13.59.2c.2.07.39.13.58.21,1.52.59,2.91,1.33,4.15,2.16.16.11.31.22.46.33s.31.22.45.33c.15.12.29.23.44.34.14.12.28.23.42.35.54.47,1.06.94,1.53,1.44.94.98,1.75,2.01,2.41,3.03.66,1.02,1.2,2.03,1.61,3,.12.24.21.49.3.71.09.24.19.47.26.69.08.23.16.46.23.67.06.22.12.43.18.64.47,1.68.62,3.06.68,3.98,0,.12,0,.23.02.33v.06s0,.05,0,.08c0,.05,0,.11,0,.15,0,.18,0,.33,0,.46,0,.15,0,.25,0,.31v.04Z"/>
    <g>
      <path d="M125.51,26.61l-1.21-10.3v-.13s-.15-1.19-.15-1.19l-.03-.26-.46-3.9h0s-.03,0-.03,0h-.03v18.79l.03-.04h0s0,0,0,0h0s0-.01,0-.01h0s0,0,0,0h0s0-.01,0-.01h0s0,0,0,0h0s.01-.03.01-.03h0s0,0,0,0h0s0-.01,0-.01l.03-.04h0s0,0,0,0h0s0-.01,0-.01h0s.05-.08.05-.08h.01v-.02l1.73-2.66h0s0-.06,0-.06ZM123.65,29.44V11.27l.41,3.46.03.26.14,1.19v.13s1.23,10.34,1.23,10.34l-1.81,2.79Z"/>
      <path d="M124.23,16.17s-.03,0-.04,0c-.14,0-.29,0-.43-.01-.04,0-.07,0-.11,0v-1.17h.43s.14,1.2.14,1.2Z"/>
      <g>
        <polygon class="cls-3" points="123.62 10.82 121.76 26.65 123.62 29.53 123.62 10.82"/>
        <g>
          <polygon class="cls-3" points="123.62 10.82 121.76 26.65 123.62 29.53 123.62 10.82"/>
          <path d="M123.62,10.83h-.03s0,0,0,0l-.46,3.9-.03.26-.14,1.17v.14s-1.23,10.3-1.23,10.3v.03s0,.03,0,.03h0s1.72,2.67,1.72,2.67h.01s.05.1.05.1h0s.01.02.01.02h0l.02.04h0s0,.02,0,.02h0s0,.01,0,.01v.02h0s0,0,0,0h0s0,0,0,0h0s0,.01,0,.01h0s0,0,0,0h0s.03.05.03.05V10.83h-.03ZM123.6,29.44l-1.81-2.8,1.22-10.35v-.14s.16-1.17.16-1.17l.03-.26.41-3.46v18.18Z"/>
        </g>
      </g>
      <path d="M104.88,29.51v.05l4.02.47h.14s.97.13.97.13l.27.03,10.41,1.22h.05s.01,0,.01,0h0s2.66-1.71,2.66-1.71l.02-.02h.02s.06-.05.06-.05h.03s0-.02,0-.02l.05-.03h.01s0,0,0,0h0s.01-.01.01-.01h0s.01,0,.01,0h0s0,0,0,0h0s.01,0,.01,0h0s0,0,0,0h0s0,0,0,0h0s0,0,0,0h0s.03-.03.03-.03h-18.83ZM120.73,31.36l-10.46-1.23-.27-.03-.97-.12h-.14s-3.58-.43-3.58-.43h18.22l-2.8,1.81Z"/>
      <path d="M110.01,30.03v.07l-.97-.12c0-.06,0-.13,0-.19,0-.08,0-.16,0-.24h.97v.48Z"/>
      <g>
        <polygon class="cls-3" points="104.88 29.53 120.74 27.67 123.62 29.53 104.88 29.53"/>
        <g>
          <polygon class="cls-3" points="104.88 29.53 120.74 27.67 123.62 29.53 104.88 29.53"/>
          <path d="M123.68,29.53h0s-.01,0-.01,0h0s0,0,0,0h0s0,0,0,0h0s0,0,0,0h0s-.01,0-.01,0h0s0,0,0,0h-.01s0-.01,0-.01l-.05-.03h-.02s-.08-.06-.08-.06h-.02s0-.02,0-.02l-2.66-1.72h-.06s-10.42,1.23-10.42,1.23l-.26.03-.97.12h-.14s-4.02.49-4.02.49v.05h18.82l-.03-.02ZM108.89,29.09l.15-.02.97-.12.26-.03,10.46-1.23,2.8,1.8h-18.21l3.57-.42ZM123.7,29.55h.01s0,0,0,0h-.01Z"/>
        </g>
      </g>
      <path d="M123.62,29.48h0s0,0,0,0h0s0,.01,0,.01h0s0,0,0,0h0s0,.01,0,.01h0s0,0,0,0h0s-.01.03-.01.03l-.03.05h-.01v.02h0s-.05.09-.05.09h-.01s-1.72,2.67-1.72,2.67h0s0,.01,0,.01v.05s1.22,10.3,1.22,10.3v.15s.16,1.19.16,1.19v.02l.49,4.12h0s.03,0,.03,0h0s.03,0,.03,0v-18.79l-.03.04ZM123.16,44.11v-.02l-.14-1.18v-.16s-1.23-10.34-1.23-10.34l1.81-2.8v18.18l-.43-3.68Z"/>
      <g>
        <polygon class="cls-3" points="123.62 48.24 125.49 32.41 123.62 29.53 123.62 48.24"/>
        <g>
          <polygon class="cls-3" points="123.62 48.24 125.49 32.41 123.62 29.53 123.62 48.24"/>
          <path d="M123.62,29.59v11.01s.02,0,.03,0v-10.98l-.03-.03ZM125.51,32.39l-1.72-2.64v-.02s0,0,0,0h0v-.02s-.08-.09-.08-.09h0s0-.02,0-.02l-.03-.04h0s0,0,0,0h0s0,0,0,0v-.02h0s0,0,0,0v-.02h0v-.02h0s-.03-.04-.03-.04v18.79h.03s.03,0,.03,0h0s.49-4.13.49-4.13v-.03s.14-1.2.14-1.2l.03-.14.05-.4v-.04l.18-1.46.03-.23.96-8.16v-.06s0-.02,0-.02ZM124.3,42.33l-.05.42h0l-.02.15-.14,1.19v.03l-.44,3.67v-18.16l1.82,2.79-.96,8.19-.03.23-.18,1.46v.03Z"/>
        </g>
      </g>
      <path d="M142.36,29.5l-4.01-.47-.15-.02-1.4-.16h-.03s-10.22-1.2-10.22-1.2h-.03s-.03,0-.03,0h-.01s-2.68,1.73-2.68,1.73h0s-.01.01-.01.01l-.07.04h0s0,.01,0,.01h0s0,0,0,0h0s-.01.01-.01.01l-.03.02h-.02s0,.01,0,.01h0s0,0,0,0h0s0,0,0,0h0s0,0,0,0h0s-.01,0-.01,0h0s-.01,0-.01,0l-.02.02h0s18.82,0,18.82,0v-.05s0,0,0,0ZM136.78,28.9h.03s1.4.17,1.4.17l.15.02,3.57.42h-18.21l2.8-1.8,10.26,1.2Z"/>
      <path d="M138.22,29.5h-1.39s0-.1,0-.2c0-.08,0-.18,0-.3,0-.03,0-.06,0-.1l1.4.16c0,.08,0,.17,0,.25,0,.06,0,.12,0,.18Z"/>
      <g>
        <path class="cls-3" d="M123.62,29.53h.02s0,.01,0,.01h0s0,0,0,0h0s0,0,0,0h0s.03.03.03.03h.03s2.78,1.81,2.78,1.81h.03l10.24-1.21h.03l1.4-.17h.14s3.8-.46,3.8-.46l.22-.03h-18.74ZM136.81,30.16v-.09c0-.12,0-.21,0-.3,0-.11,0-.18,0-.21h1.39c0,.08,0,.16,0,.23,0,.06,0,.14,0,.2l-1.39.17Z"/>
        <g>
          <path class="cls-3" d="M123.62,29.53h.02s0,.01,0,.01h0s0,0,0,0h0s0,0,0,0h0s.03.03.03.03h.03s2.78,1.81,2.78,1.81h.03l10.24-1.21h.03l1.4-.17h.14s3.8-.46,3.8-.46l.22-.03h-18.74ZM136.81,30.16v-.09c0-.12,0-.21,0-.3,0-.11,0-.18,0-.21h1.39c0,.08,0,.16,0,.23,0,.06,0,.14,0,.2l-1.39.17Z"/>
          <path d="M123.54,29.5h0s0,0,0,0h.01s0,.02,0,.02h.01s0,0,0,0h0s.01.01.01.01h0s.01,0,.01,0h0s.01,0,.01,0h.01v.02h.02s.03.03.03.03h0s.06.05.06.05h.01s0,.02,0,.02h.01s.79.52.79.52l1.9,1.23h.03s.03,0,.03,0l10.22-1.2h.03s1.4-.17,1.4-.17h.14s4.02-.49,4.02-.49v-.05h-18.83ZM138.35,29.98h-.14s-1.39.18-1.39.18h-.03l-10.26,1.21-2.8-1.81h18.21l-3.58.42Z"/>
          <path d="M138.22,29.55c0,.08,0,.16,0,.23,0,.06,0,.14,0,.2l-1.39.17v-.09c0-.12,0-.21,0-.3,0-.11,0-.18,0-.21h1.39Z"/>
        </g>
      </g>
      <g>
        <polygon class="cls-3" points="116.78 22.82 121.76 26.65 123.62 29.53 116.78 22.82"/>
        <g>
          <polygon class="cls-3" points="116.78 22.82 121.76 26.65 123.62 29.53 116.78 22.82"/>
          <path d="M123.77,29.71l-7.01-6.87.03-.04,4.98,3.83h0s1.99,3.08,1.99,3.08h0ZM117.11,23.11l6.36,6.24-1.74-2.68-4.63-3.56h0Z"/>
        </g>
      </g>
      <path d="M123.82,29.69l-3.1-2.01-3.96-4.84.04-.04,7.02,6.88h0ZM120.76,27.65l2.67,1.72-6.32-6.2,3.66,4.48Z"/>
      <g>
        <polygon class="cls-3" points="116.78 36.24 121.76 32.41 123.62 29.53 116.78 36.24"/>
        <g>
          <polygon class="cls-3" points="116.78 36.24 121.76 32.41 123.62 29.53 116.78 36.24"/>
          <path d="M116.8,36.26l-.03-.04,7.01-6.87-2,3.08-4.97,3.83h0ZM123.48,29.71l-6.36,6.24,4.63-3.56,1.74-2.68Z"/>
        </g>
      </g>
      <path d="M116.8,36.26l-.04-.04,3.96-4.85,3.1-2-7.02,6.88h0ZM123.42,29.69l-2.67,1.72-3.66,4.48,6.32-6.2Z"/>
      <g>
        <polygon class="cls-3" points="130.34 22.7 126.51 27.67 123.62 29.53 130.34 22.7"/>
        <g>
          <polygon class="cls-3" points="130.34 22.7 126.51 27.67 123.62 29.53 130.34 22.7"/>
          <path d="M123.44,29.68l6.88-6.99.04.03-3.84,4.97h0s-3.08,1.99-3.08,1.99h0ZM130.06,23.03l-6.25,6.35,2.68-1.73,3.57-4.62h0Z"/>
        </g>
      </g>
      <path d="M123.46,29.73l2.01-3.1,4.85-3.95.04.04-6.9,7.01h0ZM125.51,26.67l-1.73,2.66,6.21-6.31-4.49,3.65Z"/>
      <g>
        <polygon class="cls-3" points="130.34 36.36 126.51 31.39 123.62 29.53 130.34 36.36"/>
        <g>
          <polygon class="cls-3" points="130.34 36.36 126.51 31.39 123.62 29.53 130.34 36.36"/>
          <path d="M130.32,36.38l-6.88-6.99,3.09,1.99,3.83,4.97-.04.03h0ZM123.81,29.68l6.25,6.35-3.57-4.62-2.68-1.73h0Z"/>
        </g>
      </g>
      <path d="M130.33,36.38l-4.86-3.95-2.01-3.1,6.9,7.01-.04.04ZM125.51,32.39l4.49,3.65-6.21-6.31,1.73,2.66Z"/>
    </g>
  </g>
  <path d="M158.26,195.14c.02-4.32-5.94-15.92-7.46-19.78,0,0,1.26,0,1.26,0,2.04.04,2.05-4,0-3.97,0,0-3,0-3,0l-7.2-16.42c6.54-3.37,5.07-16.23-2.05-17.25,0,0,0-5.46,0-5.46.02-1.85-2.41-1.89-2.39,0,0,0,0,5.46,0,5.46-3.59.69-6.34,4.47-6.34,9.01,0,3.63,1.76,6.76,4.29,8.24l-7.2,16.42h-3c-2.92.64-1.35,4.91,1.26,3.97-1.55,4.49-8.21,15.82-7.32,20.9,4.21.26,9.17-17.35,11.48-20.89,0,0,5.97,0,5.97,0-.11,1.38.04,3.39,1.55,3.36,1.99.4,2.87-1.08,2.58-3.36,0,0,5.97,0,5.97,0,2.12,3.99,7.22,19.19,10.93,21.21.63.09.84-1.07.68-1.44ZM133.3,146.74c-.1-8.36,10.74-8.36,10.64,0,.1,8.36-10.74,8.36-10.64,0ZM140.68,171.4c.29-2.27-.59-3.76-2.58-3.36-1.51-.03-1.66,1.97-1.55,3.36,0,0-4.22,0-4.22,0l6.29-14.33,6.29,14.33h-4.22Z"/>
</svg>